<svg width="15" height="16" viewBox="0 0 15 16" fill="none" xmlns="http://www.w3.org/2000/svg">
<g clip-path="url(#clip0_520_1566)">
<path d="M7.49598 0.503879C3.35629 0.504758 0.00111846 3.86137 0.00199684 8.00105C0.00228964 9.43449 0.413638 10.8378 1.1872 12.0446L0.0210286 15.0703C-0.0410734 15.2312 0.0390355 15.412 0.199956 15.4741C0.23594 15.488 0.27415 15.4951 0.312711 15.495C0.348491 15.4952 0.384007 15.4891 0.417649 15.4769L3.54081 14.3619C7.05471 16.5504 11.6774 15.476 13.8659 11.9621C16.0544 8.44812 14.9799 3.82544 11.466 1.63697C10.2748 0.895083 8.89932 0.502503 7.49598 0.503879Z" fill="#554587"/>
<path d="M11.0694 9.28059C11.0694 9.28059 10.3042 8.90581 9.82515 8.65597C9.28298 8.37676 8.64586 8.89957 8.34603 9.19691C7.87941 9.01766 7.45321 8.74712 7.0924 8.40112C6.74634 8.04037 6.4758 7.61417 6.29661 7.14749C6.59394 6.84705 7.1155 6.21054 6.83755 5.66837C6.59081 5.18865 6.21293 4.42349 6.21293 4.42349C6.1599 4.31826 6.05218 4.25183 5.93433 4.25171H5.30971C4.40006 4.40882 3.73866 5.20253 3.74815 6.1256C3.74815 7.10626 4.92182 8.99016 5.71324 9.78218C6.50467 10.5742 8.38855 11.7473 9.36982 11.7473C10.2929 11.7568 11.0866 11.0953 11.2437 10.1857V9.56109C11.2438 9.44198 11.1762 9.3332 11.0694 9.28059Z" fill="white"/>
</g>
<defs>
<clipPath id="clip0_520_1566">
<rect width="15" height="15" fill="white" transform="translate(0 0.5)"/>
</clipPath>
</defs>
</svg>
