<svg width="15" height="16" viewBox="0 0 15 16" fill="none" xmlns="http://www.w3.org/2000/svg">
<g clip-path="url(#clip0_233_397)">
<path d="M7.49598 0.664066C3.35629 0.664944 0.00111846 4.02155 0.00199684 8.16124C0.00228964 9.59468 0.413638 10.998 1.1872 12.2047L0.0210286 15.2305C-0.0410734 15.3914 0.0390355 15.5722 0.199956 15.6343C0.23594 15.6482 0.27415 15.6553 0.312711 15.6552C0.348491 15.6554 0.384007 15.6493 0.417649 15.6371L3.54081 14.5221C7.05471 16.7106 11.6774 15.6362 13.8659 12.1222C16.0544 8.60831 14.9799 3.98563 11.466 1.79716C10.2748 1.05527 8.89932 0.66269 7.49598 0.664066Z" fill="white"/>
<path d="M11.0695 9.44099C11.0695 9.44099 10.3044 9.06621 9.82527 8.81637C9.2831 8.53716 8.64598 9.05997 8.34616 9.35731C7.87953 9.17806 7.45333 8.90752 7.09252 8.56152C6.74647 8.20077 6.47592 7.77457 6.29673 7.30789C6.59407 7.00745 7.11562 6.37094 6.83767 5.82877C6.59093 5.34905 6.21305 4.58389 6.21305 4.58389C6.16003 4.47866 6.05231 4.41223 5.93446 4.41211H5.30984C4.40018 4.56922 3.73878 5.36293 3.74827 6.286C3.74827 7.26666 4.92194 9.15057 5.71337 9.94258C6.50479 10.7346 8.38867 11.9077 9.36994 11.9077C10.293 11.9172 11.0867 11.2557 11.2438 10.3461V9.72149C11.2439 9.60238 11.1763 9.4936 11.0695 9.44099Z" fill="#554587"/>
</g>
<defs>
<clipPath id="clip0_233_397">
<rect width="15" height="15" fill="white" transform="translate(0 0.660156)"/>
</clipPath>
</defs>
</svg>
