<svg width="549" height="600" viewBox="0 0 549 600" fill="none" xmlns="http://www.w3.org/2000/svg">
<g clip-path="url(#clip0_441_3547)">
<rect width="549" height="600" rx="26.67" fill="#F6F8FF"/>
<path d="M406.955 715.641L-35.6396 597.048C-42.9084 595.114 -49.74 591.823 -55.7437 587.365C-61.7473 582.906 -66.8051 577.368 -70.6276 571.066C-74.4502 564.764 -76.9624 557.822 -78.0207 550.639C-79.0789 543.455 -78.6623 536.17 -76.7948 529.2L1.40794 237.343C3.90438 228.026 8.91249 219.556 15.9294 212.786C22.9462 206.016 31.7248 201.184 41.3837 198.774C51.0425 196.364 61.2416 196.462 70.9566 199.058C80.6717 201.653 89.5609 206.655 96.7314 213.562L261.714 372.693L483.87 317.295C493.533 314.899 503.732 315.012 513.443 317.622C523.155 320.232 532.036 325.246 539.196 332.163C546.356 339.079 551.542 347.653 554.234 357.025C556.926 366.396 557.029 376.235 554.532 385.552L476.329 677.409C472.566 691.453 463.147 703.367 450.14 710.535C437.134 717.703 421.602 719.54 406.955 715.641Z" fill="#E9D7FE"/>
<path d="M187.997 134.26C187.979 134.326 187.961 134.392 187.943 134.457C187.907 134.403 187.927 134.337 187.997 134.26C189.934 127.269 194.404 112.687 197.237 108.721C200.811 114.559 207.889 126.593 207.603 128.023C201.241 129.697 189.044 133.128 187.997 134.26Z" fill="#FFB598"/>
<path d="M187.943 134.457C189.85 127.546 194.377 112.724 197.237 108.721C200.811 114.559 207.889 126.593 207.603 128.023C200.811 129.81 187.371 133.599 187.943 134.457Z" stroke="#FFB598"/>
<path d="M270.154 157.187C270.154 157.237 270.155 157.286 270.156 157.334C270.187 157.307 270.186 157.257 270.154 157.187C270.057 149.402 271.923 120.847 268.726 116.585C259.075 120.16 243.432 136.138 243.347 137.674C249.554 141.148 269.358 155.446 270.154 157.187Z" fill="#FFB598"/>
<path d="M270.156 157.334C270.033 149.77 271.943 120.874 268.726 116.585C259.075 120.16 243.432 136.138 243.347 137.674C249.802 141.287 270.965 156.608 270.156 157.334Z" stroke="#FFB598"/>
<path d="M177.577 170.918C168.141 171.49 163.398 181.641 162.207 186.645V190.935L171.143 204.875C173.526 206.305 178.649 209.522 180.079 210.952C181.867 212.739 198.666 209.879 205.815 206.305C212.964 202.73 213.679 184.858 208.318 177.709C202.956 170.56 189.373 170.203 177.577 170.918Z" fill="white" stroke="white"/>
<path d="M98.2241 364.653C99.6539 326.049 61.0497 323.547 59.9773 323.189H57.1178L49.9689 327.121L41.7476 331.411L36.3859 338.56V348.211L39.9604 356.075L49.9689 359.649H59.9773L64.9816 364.653L85.356 367.155L98.2241 364.653Z" fill="white" stroke="white"/>
<path d="M348.436 472.603C345.005 460.021 325.083 456.875 315.551 456.875L304.828 467.956L300.181 478.322L298.394 488.33L303.398 496.909L313.049 500.126L324.845 495.479L336.998 485.828L348.436 472.603Z" fill="white" stroke="white"/>
<path d="M205.458 287.089C221.472 235.045 194.973 226.085 179.722 228.111V235.617L172.215 276.723L175.075 305.676L178.649 316.757L187.586 311.753C192.947 305.796 203.814 293.738 204.386 293.166C204.958 292.594 205.339 288.876 205.458 287.089Z" fill="white" stroke="white"/>
<path d="M195.563 99.8871C193.217 101.549 186.766 117.187 183.541 129.013C181.488 136.442 181.098 136.93 172.887 145.14C163.211 154.816 159.497 161.267 158.129 170.846C156.272 183.65 161.745 198.213 172.105 208.182L177.97 213.851L177.383 224.309C177.09 230.076 176.015 239.361 175.038 244.932L173.278 255.097L167.414 259.984C154.121 271.126 141.122 278.359 117.078 288.035C95.8689 296.441 84.3357 302.305 70.1635 311.59C63.4195 315.988 55.1117 320.973 51.5931 322.537C39.1802 328.304 34 334.657 34 344.137C34 354.302 40.744 360.753 51.5931 360.948C56.1868 361.046 58.9235 361.633 61.2692 363.099C69.1861 367.888 80.0352 368.572 112.68 366.324C126.95 365.347 139.852 365.249 160.572 365.738C196.345 366.617 199.863 366.52 209.54 364.272C217.261 362.415 217.652 362.415 222.246 364.174C228.794 366.715 243.357 369.745 258.409 371.798C268.379 373.166 277.468 373.459 301.903 373.361L332.789 373.264L333.962 378.053C334.646 380.594 337.578 387.436 340.51 393.007C346.179 404.051 346.765 407.179 344.322 414.021C342.172 420.374 336.992 427.313 325.752 439.531C303.956 463.086 296.723 474.033 296.625 483.807C296.528 489.866 299.069 495.633 303.076 498.565C307.181 501.595 316.369 501.4 322.819 498.174C326.045 496.513 335.916 487.716 353.119 471.198C390.162 435.426 395.342 429.659 399.154 419.103C407.852 395.255 411.567 391.345 439.618 376C459.361 365.151 466.203 358.603 473.338 343.551C475.293 339.446 477.638 332.213 478.616 327.522L480.375 318.921L484.676 319.116C491.42 319.605 514.193 317.552 527.583 315.304C565.408 309.049 591.895 292.629 611.15 263.6C622.488 246.496 630.893 227.73 635.78 208.378C639.103 195.183 640.081 171.041 637.637 162.733C633.923 149.832 622.195 148.561 617.699 160.485C617.014 162.049 614.571 171.53 612.225 181.499C603.624 217.565 592.971 240.143 577.039 256.563C559.739 274.449 540.973 281.096 507.546 281.096C498.945 281.193 487.217 280.509 481.45 279.727C471.188 278.359 470.797 278.261 464.443 273.374C448.707 261.255 434.144 257.149 403.943 256.172C395.342 255.879 371.591 255.586 351.164 255.39C320.083 255.195 313.143 254.901 308.354 253.533C292.032 248.842 285.385 241.218 281.769 222.745C280.987 218.64 279.228 206.423 277.859 195.671C276.491 184.92 274.927 173.582 274.438 170.455C273.754 166.35 273.95 163.124 275.025 158.237C275.807 154.621 276.686 145.336 277.077 137.517C277.957 115.721 275.318 107.217 268.281 108.586C262.905 109.661 254.988 115.232 245.801 124.42L236.907 133.216L233.095 131.946C230.945 131.164 225.764 129.893 221.366 128.916L213.547 127.254L209.931 118.36C206.51 109.856 201.916 102.037 198.984 99.5938C197.909 98.7142 197.127 98.812 195.563 99.8871ZM205.63 119.826C207.585 125.006 209.735 129.698 210.322 130.284C210.908 130.87 215.404 132.141 220.193 133.118C225.08 134.096 231.042 135.66 233.583 136.637L238.177 138.396L243.162 132.825C250.199 125.104 259.387 117.285 264.86 114.45C267.401 113.18 269.649 112.104 269.942 112.104C270.138 112.104 270.92 113.766 271.702 115.721C273.559 121.096 273.266 144.554 271.115 155.501C269.454 164.004 269.454 164.395 271.995 183.356C277.762 227.632 278.544 231.151 283.43 240.338C287.047 247.082 291.445 251.285 298.58 254.51C308.354 259.007 315.587 259.593 360.058 259.691C428.573 259.691 442.354 261.939 461.414 276.209C470.21 282.855 470.112 282.757 480.18 284.028C512.14 287.84 538.628 285.201 557.296 276.502C586.227 262.818 604.699 232.617 617.308 178.176C622.097 157.846 624.345 153.937 629.721 157.455C636.269 161.756 636.953 186.191 631.187 208.671C620.338 250.992 595.023 285.103 563.258 300.252C545.958 308.463 522.207 313.252 493.863 314.229L476.368 314.913L475.097 322.048C472.458 337.98 467.376 348.438 457.797 357.919C452.226 363.392 447.632 366.617 434.731 373.85C409.807 387.827 404.432 392.909 399.056 407.57C392.41 425.554 390.846 427.704 370.809 447.839C330.443 488.303 319.985 497.197 312.85 497.197C308.843 497.197 303.956 494.558 302.392 491.43C297.212 481.461 303.662 469.634 329.27 441.974C344.322 425.75 350.186 415.878 350.089 406.788C350.089 402.781 349.013 400.044 344.127 390.661C337.089 377.271 335.428 369.843 336.307 355.475C337.187 340.326 343.638 323.123 355.757 303.869C361.329 294.975 362.404 292.531 361.329 291.847C360.547 291.358 359.765 290.967 359.472 290.967C358.201 290.967 349.111 306.117 343.345 317.845C335.037 334.461 332.007 345.115 331.811 358.016L331.616 367.888L324.383 368.572C310.895 369.647 275.22 369.159 262.221 367.692C247.56 366.031 235.929 363.978 228.599 361.73L223.419 360.264L230.945 355.964C239.643 350.979 245.117 346.972 245.117 345.603C245.117 343.062 241.696 343.844 236.32 347.558C229.185 352.641 220.291 356.746 210.224 359.58C202.796 361.828 201.72 361.828 161.55 361.535C129.198 361.242 116.785 361.535 102.808 362.806C88.5385 364.076 83.456 364.174 77.0053 363.294C68.5997 362.121 64.2992 360.948 64.2992 359.678C64.2992 359.189 66.8404 357.723 69.968 356.355C72.9979 354.986 80.6216 350.197 86.7792 345.799C92.9367 341.401 100.658 336.514 103.884 334.95C112.582 330.845 126.755 327.424 145.227 325.176C174.94 321.462 181.977 319.018 193.119 308.951C200.157 302.598 208.269 291.749 207.78 289.306C207.194 286.276 205.239 286.96 202.796 291.163C199.082 297.418 191.262 305.824 185.105 310.026C182.075 312.079 179.436 313.545 179.143 313.349C178.068 312.177 175.722 300.839 174.647 290.772C173.376 278.554 174.06 271.322 179.045 245.518C180.609 237.308 181.586 229.392 181.586 223.136C181.586 215.317 181.879 213.265 183.248 212.287C185.105 210.919 184.225 208.866 181.684 208.866C178.947 208.866 173.474 204.273 169.662 198.604C161.55 186.582 159.888 172.703 165.361 161.658C168.098 155.892 177.872 144.652 181.879 142.501C183.932 141.426 185.105 139.081 188.037 129.795C189.992 123.54 192.924 115.232 194.488 111.323L197.518 104.285L199.766 107.413C201.036 109.075 203.675 114.743 205.63 119.826ZM170.639 268.683C169.467 276.502 170.444 296.441 172.301 304.651C173.083 308.169 174.06 312.177 174.354 313.545C174.94 316.086 174.842 316.184 166.339 317.65C161.55 318.53 150.603 320.191 142.002 321.266C114.244 324.883 101.831 329.281 84.3357 341.889C63.4195 356.941 49.3451 360.46 41.5259 352.738C37.5186 348.633 36.9322 342.867 40.0598 336.905C42.1124 333.093 43.6762 331.822 52.375 327.131C57.7506 324.199 67.9155 318.236 74.7573 313.838C90.591 303.771 93.3277 302.403 117.372 292.531C138.874 283.832 155.881 274.743 164.775 267.412C167.805 264.871 170.639 262.721 170.933 262.721C171.226 262.623 171.128 265.36 170.639 268.683Z" fill="#281464"/>
<path d="M177.774 157.652C173.669 162.832 173.767 168.11 177.774 168.598C181.586 169.087 185.691 163.809 185.3 159.118C185.007 156.088 184.616 155.599 182.466 155.306C180.609 155.11 179.241 155.794 177.774 157.652Z" fill="#281464"/>
<path d="M210.908 163.906C209.833 164.982 208.953 166.545 208.953 167.327C208.953 169.575 211.494 175.244 212.863 176.124C216.186 178.176 221.659 173.094 221.659 167.816C221.659 165.079 218.238 161.952 215.306 161.952C213.938 161.952 211.983 162.831 210.908 163.906Z" fill="#281464"/>
<path d="M177.97 173.289C177.188 175.439 179.338 179.642 181.586 180.228C183.248 180.717 183.443 181.304 182.955 184.822C182.075 190.296 181.097 191.077 177.677 189.123C174.549 187.363 173.278 188.145 174.256 191.273C175.038 193.619 178.263 195.573 180.218 194.792C181 194.498 182.955 195.183 184.518 196.355C188.33 199.19 194.781 198.31 198.006 194.596C199.668 192.739 199.961 191.664 199.179 190.882C198.397 190.1 197.713 190.198 196.443 191.077C189.699 195.867 186.962 194.694 186.864 186.777L186.766 180.913L190.578 179.349C197.615 176.319 193.51 171.725 183.736 171.725C179.925 171.725 178.458 172.116 177.97 173.289Z" fill="#281464"/>
</g>
<defs>
<clipPath id="clip0_441_3547">
<rect width="549" height="600" rx="26.67" fill="white"/>
</clipPath>
</defs>
</svg>
