<svg width="1920" height="1440" viewBox="0 0 1920 1440" fill="none" xmlns="http://www.w3.org/2000/svg">
<path d="M1728.5 1440H192.167C166.947 1440.04 141.966 1435.11 118.653 1425.49C95.34 1415.87 74.1531 1401.75 56.3044 1383.93C38.4557 1366.12 24.2956 1344.96 14.6342 1321.66C4.9729 1298.37 -3.79426e-05 1273.4 6.49567e-08 1248.18L6.49567e-08 192.16C-0.000876464 158.445 8.86921 125.324 25.7195 96.1222C42.5699 66.9202 66.8073 42.6653 95.9979 25.7932C125.188 8.92103 158.305 0.0255679 192.021 5.50347e-05C225.737 -0.0254579 258.867 8.81988 288.083 25.6478L960.5 413.621L1631.92 25.6478C1661.13 8.81988 1694.26 -0.0254579 1727.98 5.50347e-05C1761.7 0.0255679 1794.81 8.92103 1824 25.7932C1853.19 42.6653 1877.43 66.9202 1894.28 96.1222C1911.13 125.324 1920 158.445 1920 192.16V1248.18C1920 1298.99 1899.83 1347.74 1863.93 1383.7C1828.03 1419.66 1779.32 1439.91 1728.5 1440Z" fill="#E9D7FE" fill-opacity="0.4"/>
</svg>
