<svg width="564" height="202" viewBox="0 0 564 202" fill="none" xmlns="http://www.w3.org/2000/svg">
<path d="M426.128 476.836L19.8214 367.966C13.1487 366.19 6.87715 363.169 1.36575 359.077C-4.14565 354.984 -8.78875 349.899 -12.2979 344.114C-15.807 338.329 -18.1133 331.957 -19.0848 325.362C-20.0562 318.767 -19.6738 312.079 -17.9594 305.681L53.8315 37.7537C56.1233 29.1998 60.7208 21.4251 67.1623 15.2102C73.6039 8.99527 81.6627 4.55899 90.5296 2.34682C99.3965 0.134654 108.759 0.224471 117.678 2.60725C126.596 4.99003 134.757 9.58189 141.339 15.9217L292.795 162.006L496.737 111.15C505.607 108.951 514.97 109.054 523.885 111.45C532.8 113.846 540.954 118.45 547.527 124.799C554.099 131.148 558.861 139.019 561.332 147.622C563.803 156.225 563.897 165.257 561.605 173.811L489.814 441.738C486.359 454.631 477.713 465.568 465.772 472.149C453.832 478.729 439.574 480.415 426.128 476.836Z" fill="#F6EFFE"/>
</svg>
