<svg width="159" height="22" viewBox="0 0 159 22" fill="none" xmlns="http://www.w3.org/2000/svg">
<g clip-path="url(#clip0_233_424)">
<path d="M24.2595 20.778H2.69705C2.34309 20.7786 1.99248 20.708 1.66529 20.5703C1.3381 20.4326 1.04074 20.2304 0.790232 19.9754C0.539726 19.7203 0.340988 19.4174 0.205391 19.0839C0.0697945 18.7505 -5.32524e-07 18.393 9.11667e-10 18.032L9.11666e-10 2.91487C-1.23012e-05 2.43224 0.124479 1.95811 0.360973 1.54007C0.597467 1.12204 0.937639 0.774826 1.34733 0.533298C1.75702 0.291769 2.2218 0.164429 2.69501 0.164063C3.16822 0.163698 3.6332 0.290321 4.04324 0.531217L13.4806 6.08513L22.9039 0.531217C23.314 0.290321 23.7789 0.163698 24.2522 0.164063C24.7254 0.164429 25.1902 0.291769 25.5998 0.533298C26.0095 0.774826 26.3497 1.12204 26.5862 1.54007C26.8227 1.95811 26.9472 2.43224 26.9472 2.91487V18.032C26.9472 18.7595 26.6642 19.4572 26.1602 19.972C25.6563 20.4869 24.9727 20.7767 24.2595 20.778Z" fill="#C882FF"/>
<path d="M49.271 5.85245C47.2953 5.85245 45.84 6.6184 44.9052 8.15029C44.5098 7.41851 43.9205 6.81495 43.2047 6.4086C42.4889 6.00226 41.6754 5.80953 40.8573 5.85245C40.0537 5.80827 39.2529 5.98169 38.5362 6.35512C37.8196 6.72854 37.2125 7.28867 36.7766 7.97867V6.23383H33.6963V20.7789H36.7766V12.6316C36.7066 11.6009 37.0167 10.5807 37.646 9.77118C37.9345 9.4454 38.2895 9.18817 38.6861 9.01765C39.0826 8.84713 39.5111 8.76749 39.9411 8.78434C40.312 8.76181 40.6832 8.82466 41.0271 8.96825C41.3709 9.11185 41.6787 9.33249 41.9277 9.61386C42.4288 10.283 42.6761 11.1143 42.6241 11.9546V20.7789H45.7045V12.6316C45.7045 11.373 45.9803 10.4148 46.5318 9.77118C46.819 9.44849 47.1733 9.19539 47.5688 9.03041C47.9643 8.86544 48.391 8.79277 48.8176 8.81772C49.1949 8.79865 49.5718 8.86434 49.9215 9.01015C50.2712 9.15596 50.5853 9.37832 50.8415 9.66153C51.3691 10.3131 51.6347 11.1445 51.5847 11.988V20.7789H54.6884V11.7591C54.7639 10.1855 54.23 8.64459 53.202 7.46857C52.697 6.92971 52.0852 6.50685 51.4074 6.22817C50.7295 5.94949 50.0012 5.82141 49.271 5.85245Z" fill="white"/>
<path d="M68.8669 8.29767C67.7076 6.66725 66.0436 5.85204 63.8747 5.85204C62.9326 5.84074 61.9987 6.03187 61.1338 6.41298C60.2688 6.79409 59.4923 7.35666 58.8546 8.06407C58.17 8.78489 57.6331 9.63755 57.2752 10.5723C56.9173 11.507 56.7455 12.5051 56.7699 13.5083C56.7457 14.5115 56.9177 15.5095 57.2756 16.4442C57.6335 17.3789 58.1703 18.2316 58.8546 18.9526C59.4923 19.66 60.2688 20.2226 61.1338 20.6037C61.9987 20.9848 62.9326 21.1759 63.8747 21.1646C66.0561 21.1646 67.7201 20.3399 68.8669 18.6904V20.7833H71.9472V6.23342H68.8669V8.29767ZM67.5861 16.8455C66.7168 17.6906 65.5619 18.1621 64.3609 18.1621C63.1599 18.1621 62.0049 17.6906 61.1356 16.8455C60.7165 16.4032 60.3874 15.8805 60.1676 15.3077C59.9478 14.7349 59.8415 14.1233 59.8549 13.5083C59.8323 12.8922 59.9344 12.278 60.1547 11.7038C60.3751 11.1297 60.709 10.608 61.1356 10.1712C61.9982 9.31278 63.1557 8.83226 64.3609 8.83226C65.5661 8.83226 66.7235 9.31278 67.5861 10.1712C68.0128 10.608 68.3467 11.1297 68.567 11.7038C68.7874 12.278 68.8894 12.8922 68.8669 13.5083C68.8837 14.1237 68.779 14.7363 68.5589 15.3096C68.3389 15.8829 68.0081 16.4052 67.5861 16.8455Z" fill="white"/>
<path d="M78.4913 8.67377V6.23291H75.4062V20.778H78.4913V13.4458C78.4913 11.9521 78.9275 10.8858 79.8001 10.247C80.6932 9.58955 81.7876 9.28006 82.8851 9.37456V5.9707C80.7349 5.9707 79.2703 6.87173 78.4913 8.67377Z" fill="white"/>
<path d="M97.1409 6.22732H93.3781L87.8438 12.5392V0.535156H84.7588V20.7772H87.8438V14.1268L93.6913 20.7772H97.37L90.8681 13.3592L97.1409 6.22732Z" fill="white"/>
<path d="M101.857 6.23438H98.7764V20.7842H101.857V6.23438Z" fill="white"/>
<path d="M119.409 2.10547H116.324V6.23396H109.845V2.10547H106.765V6.23396H104.143V9.00377H106.765V16.2405C106.765 18.1475 107.279 19.4521 108.307 20.1545C109.336 20.8569 111.028 21.0651 113.384 20.779V17.9568C112.603 17.9949 111.953 17.9997 111.43 17.9568C110.997 17.9635 110.577 17.8093 110.247 17.5229C110.098 17.3453 109.986 17.1389 109.917 16.9162C109.848 16.6934 109.824 16.4588 109.845 16.2262V9.00377H116.324V16.2405C116.324 18.1475 116.838 19.4521 117.866 20.1545C118.895 20.8569 120.584 21.0651 122.933 20.779V17.9568C122.157 17.9949 121.503 17.9997 120.979 17.9568C120.547 17.9635 120.126 17.8093 119.797 17.5229C119.649 17.3449 119.537 17.1384 119.469 16.9157C119.401 16.6929 119.377 16.4585 119.399 16.2262V9.00377H122.933V6.23396H119.399L119.409 2.10547Z" fill="white"/>
<path d="M128.824 6.23438H125.743V20.7842H128.824V6.23438Z" fill="white"/>
<path d="M138.985 5.85294C137.98 5.814 136.979 5.99079 136.046 6.37186C135.112 6.75293 134.268 7.32976 133.567 8.06497C132.875 8.78104 132.33 9.63223 131.967 10.5676C131.604 11.5031 131.43 12.5035 131.455 13.5092C131.424 14.5268 131.598 15.5401 131.966 16.4864C132.334 17.4327 132.889 18.2918 133.596 19.0107C134.342 19.7333 135.223 20.2961 136.187 20.6662C137.15 21.0363 138.176 21.2061 139.205 21.1655C141.981 21.1655 144.064 20.1072 145.454 17.9905L142.911 16.4793C142.499 17.071 141.946 17.5463 141.304 17.8607C140.662 18.175 139.953 18.3181 139.242 18.2765C138.17 18.3149 137.114 17.9989 136.232 17.3755C135.416 16.7652 134.861 15.8593 134.68 14.8441H146.034C146.104 14.4123 146.142 13.9756 146.146 13.5378C146.192 11.5236 145.465 9.5706 144.122 8.09357C143.475 7.36449 142.681 6.78677 141.794 6.40003C140.907 6.01328 139.949 5.82666 138.985 5.85294ZM134.591 12.5272C134.641 11.9709 134.802 11.4307 135.062 10.9391C135.322 10.4476 135.677 10.0148 136.106 9.66678C136.913 9.01087 137.925 8.67253 138.957 8.71332C139.93 8.69138 140.879 9.03013 141.626 9.66678C142.039 10.0207 142.376 10.457 142.617 10.949C142.858 11.4409 142.998 11.978 143.028 12.5272H134.591Z" fill="white"/>
<path d="M158.584 14.7439C158.287 14.1882 157.847 13.7252 157.312 13.4043C156.817 13.0939 156.293 12.8351 155.747 12.632C155.174 12.4417 154.592 12.2825 154.003 12.1553C153.307 11.9756 152.636 11.7065 152.007 11.3544C151.806 11.2534 151.637 11.0982 151.516 10.9058C151.396 10.7133 151.33 10.4909 151.325 10.2627C151.315 10.0352 151.364 9.80918 151.468 9.60742C151.571 9.40566 151.725 9.23535 151.914 9.11376C152.36 8.82466 152.881 8.6816 153.409 8.70377C154.721 8.70377 155.616 9.25678 156.092 10.3628L158.687 8.88016C158.205 7.9445 157.468 7.17121 156.565 6.65383C155.6 6.10973 154.512 5.83355 153.409 5.85292C152.061 5.80701 150.74 6.24009 149.67 7.07812C149.189 7.45763 148.802 7.94787 148.542 8.5088C148.282 9.06973 148.156 9.68542 148.174 10.3056C148.14 10.968 148.284 11.6274 148.59 12.2125C148.893 12.7589 149.34 13.208 149.88 13.5092C150.372 13.8068 150.888 14.0604 151.423 14.2672C151.989 14.4721 152.564 14.6472 153.148 14.7916C154.958 15.2397 155.862 15.8611 155.859 16.6556C155.859 17.7362 155.05 18.2781 153.433 18.2813C151.815 18.2845 150.761 17.5869 150.268 16.1884L147.613 17.7521C148.059 18.808 148.83 19.6867 149.81 20.255C150.916 20.8825 152.167 21.1953 153.433 21.1607C154.848 21.2102 156.24 20.7903 157.401 19.9642C157.914 19.5951 158.328 19.1014 158.606 18.5278C158.885 17.9543 159.018 17.319 158.995 16.6795C159.029 16.0085 158.887 15.3404 158.584 14.7439Z" fill="white"/>
<path d="M100.319 4.05028C101.372 4.05028 102.226 3.17945 102.226 2.10522C102.226 1.03099 101.372 0.160156 100.319 0.160156C99.2659 0.160156 98.4121 1.03099 98.4121 2.10522C98.4121 3.17945 99.2659 4.05028 100.319 4.05028Z" fill="white"/>
<path d="M127.28 4.05028C128.334 4.05028 129.187 3.17945 129.187 2.10522C129.187 1.03099 128.334 0.160156 127.28 0.160156C126.227 0.160156 125.373 1.03099 125.373 2.10522C125.373 3.17945 126.227 4.05028 127.28 4.05028Z" fill="white"/>
</g>
<defs>
<clipPath id="clip0_233_424">
<rect width="159" height="21" fill="white" transform="translate(0 0.160156)"/>
</clipPath>
</defs>
</svg>
